<svg id="Layer_1" data-name="Layer 1" xmlns="http://www.w3.org/2000/svg" viewBox="0 0 50.73 48.19"><defs><style>.cls-1{fill:#00afef;fill-rule:evenodd;}</style></defs><path class="cls-1" d="M30,5.84A25.87,25.87,0,0,0,4.62,31.7V43.88A10.16,10.16,0,0,0,14.77,54c5.6,0,7.31-4.55,7.31-10.15s-1.71-10.14-7.31-10.14A9.84,9.84,0,0,0,9.7,35.16v-3c0-.14,0-.29,0-.44A20.8,20.8,0,0,1,30,10.91,20.8,20.8,0,0,1,50.28,31.7v3.46a9.88,9.88,0,0,0-5.08-1.42c-5.6,0-7.31,4.54-7.31,10.14S39.6,54,45.2,54A10.15,10.15,0,0,0,55.35,43.88V31.7A25.87,25.87,0,0,0,30,5.84Z" transform="translate(-4.62 -5.84)"/></svg>